<?xml version="1.0" encoding="UTF-8"?>
<svg id="Capa_2" data-name="Capa 2" xmlns="http://www.w3.org/2000/svg" viewBox="0 0 100 100">
  <defs>
    <style>
      .cls-1 {
        fill: #767676;
      }
    </style>
  </defs>
  <circle class="cls-1" cx="50" cy="50" r="23.67"/>
  <path class="cls-1" d="m49.79,20.35l-6.88.05c-.41,0-.68-.44-.47-.81l3.4-5.99,3.4-5.99c.2-.36.72-.36.93,0l3.48,5.94,3.48,5.94c.21.36-.05.81-.46.81l-6.88.05Z"/>
  <path class="cls-1" d="m28.89,29.19l-4.84,4.9c-.29.3-.79.16-.9-.24l-1.83-6.64-1.83-6.64c-.11-.4.25-.77.66-.66l6.66,1.74,6.66,1.74c.4.1.54.6.25.9l-4.84,4.9Z"/>
  <path class="cls-1" d="m20.35,50.21l.05,6.88c0,.41-.44.68-.81.47l-5.99-3.4-5.99-3.4c-.36-.2-.36-.72,0-.93l5.94-3.48,5.94-3.48c.36-.21.81.05.81.46l.05,6.88Z"/>
  <path class="cls-1" d="m29.19,71.11l4.9,4.84c.3.29.16.79-.24.9l-6.64,1.83-6.64,1.83c-.4.11-.77-.25-.66-.66l1.74-6.66,1.74-6.66c.1-.4.6-.54.9-.25l4.9,4.84Z"/>
  <path class="cls-1" d="m50.21,79.65l6.88-.05c.41,0,.68.44.47.81l-3.4,5.99-3.4,5.99c-.2.36-.72.36-.93,0l-3.48-5.94-3.48-5.94c-.21-.36.05-.81.46-.81l6.88-.05Z"/>
  <path class="cls-1" d="m71.11,70.81l4.84-4.9c.29-.3.79-.16.9.24l1.83,6.64,1.83,6.64c.11.4-.25.77-.66.66l-6.66-1.74-6.66-1.74c-.4-.1-.54-.6-.25-.9l4.84-4.9Z"/>
  <path class="cls-1" d="m79.65,49.79l-.05-6.88c0-.41.44-.68.81-.47l5.99,3.4,5.99,3.4c.36.2.36.72,0,.93l-5.94,3.48-5.94,3.48c-.36.21-.81-.05-.81-.46l-.05-6.88Z"/>
  <path class="cls-1" d="m70.81,28.89l-4.9-4.84c-.3-.29-.16-.79.24-.9l6.64-1.83,6.64-1.83c.4-.11.77.25.66.66l-1.74,6.66-1.74,6.66c-.1.4-.6.54-.9.25l-4.9-4.84Z"/>
</svg>